<?xml version="1.0" encoding="UTF-8"?>
<!DOCTYPE svg PUBLIC "-//W3C//DTD SVG 1.1//EN" "http://www.w3.org/Graphics/SVG/1.1/DTD/svg11.dtd">
<!-- Creator: CorelDRAW X7 -->
<svg xmlns="http://www.w3.org/2000/svg" xml:space="preserve" width="297mm" height="210mm" version="1.1" style="shape-rendering:geometricPrecision; text-rendering:geometricPrecision; image-rendering:optimizeQuality; fill-rule:evenodd; clip-rule:evenodd"
viewBox="0 0 29700 21000"
 xmlns:xlink="http://www.w3.org/1999/xlink">
 <defs>
  <style type="text/css">
   <![CDATA[
    .fil0 {fill:#FF4AF9}
    .fil14 {fill:#FF4CF9}
    .fil15 {fill:white}
    .fil18 {fill:url(#id2)}
    .fil13 {fill:url(#id3)}
    .fil11 {fill:url(#id4)}
    .fil7 {fill:url(#id5)}
    .fil12 {fill:url(#id6)}
    .fil10 {fill:url(#id7)}
    .fil1 {fill:url(#id8)}
    .fil17 {fill:url(#id9)}
    .fil2 {fill:url(#id10)}
    .fil6 {fill:url(#id11)}
    .fil4 {fill:url(#id12)}
    .fil3 {fill:url(#id13)}
    .fil5 {fill:url(#id14)}
    .fil16 {fill:url(#id15)}
    .fil8 {fill:url(#id16)}
    .fil9 {fill:url(#id17)}
   ]]>
  </style>
    <clipPath id="id0">
     <rect x="1005" y="3080" width="27691" height="13470"/>
    </clipPath>
    <clipPath id="id1">
     <rect x="7876" y="15402" width="13752" height="2518"/>
    </clipPath>
  <linearGradient id="id2" gradientUnits="userSpaceOnUse" x1="26868.4" y1="14606.3" x2="27062.4" y2="14606.3">
   <stop offset="0" style="stop-opacity:1; stop-color:#625F80"/>
   <stop offset="1" style="stop-opacity:1; stop-color:white"/>
  </linearGradient>
  <linearGradient id="id3" gradientUnits="userSpaceOnUse" x1="20626.7" y1="14692.9" x2="20614.8" y2="15125.2">
   <stop offset="0" style="stop-opacity:1; stop-color:#625F80"/>
   <stop offset="1" style="stop-opacity:1; stop-color:#010A3B"/>
  </linearGradient>
  <linearGradient id="id4" gradientUnits="userSpaceOnUse" xlink:href="#id3" x1="17820.7" y1="14631.3" x2="17770.5" y2="15186.8">
  </linearGradient>
  <linearGradient id="id5" gradientUnits="userSpaceOnUse" xlink:href="#id3" x1="7737.51" y1="14612.2" x2="7952.52" y2="15208.3">
  </linearGradient>
  <linearGradient id="id6" gradientUnits="userSpaceOnUse" xlink:href="#id3" x1="24785.9" y1="14774.7" x2="24762.7" y2="15043.5">
  </linearGradient>
  <linearGradient id="id7" gradientUnits="userSpaceOnUse" xlink:href="#id3" x1="15850.4" y1="14606.4" x2="15821.9" y2="15211.8">
  </linearGradient>
  <linearGradient id="id8" gradientUnits="userSpaceOnUse" x1="14738.7" y1="7101.6" x2="14738.7" y2="4801.45">
   <stop offset="0" style="stop-opacity:1; stop-color:#129CFF"/>
   <stop offset="1" style="stop-opacity:1; stop-color:#FF4CF9"/>
  </linearGradient>
  <linearGradient id="id9" gradientUnits="userSpaceOnUse" x1="14818.9" y1="14494" x2="14818.9" y2="12197.2">
   <stop offset="0" style="stop-opacity:1; stop-color:#818496"/>
   <stop offset="1" style="stop-opacity:1; stop-color:#FEFEFE"/>
  </linearGradient>
  <linearGradient id="id10" gradientUnits="userSpaceOnUse" xlink:href="#id8" x1="14930.9" y1="5893.08" x2="14930.9" y2="4482.12">
  </linearGradient>
  <linearGradient id="id11" gradientUnits="userSpaceOnUse" xlink:href="#id3" x1="9706.66" y1="14641.7" x2="9875.76" y2="15176.4">
  </linearGradient>
  <linearGradient id="id12" gradientUnits="userSpaceOnUse" xlink:href="#id3" x1="5793.01" y1="14609.7" x2="6033.09" y2="15208.5">
  </linearGradient>
  <linearGradient id="id13" gradientUnits="userSpaceOnUse" xlink:href="#id8" x1="14850.1" y1="9942.56" x2="14850.1" y2="6141.24">
  </linearGradient>
  <linearGradient id="id14" gradientUnits="userSpaceOnUse" xlink:href="#id3" x1="3844.02" y1="14615.5" x2="4058.38" y2="15200.3">
  </linearGradient>
  <linearGradient id="id15" gradientUnits="userSpaceOnUse" xlink:href="#id9" x1="14818.9" y1="13957.7" x2="14818.9" y2="10905.1">
  </linearGradient>
  <linearGradient id="id16" gradientUnits="userSpaceOnUse" xlink:href="#id3" x1="13034.5" y1="14629.5" x2="13034.5" y2="15188.7">
  </linearGradient>
  <linearGradient id="id17" gradientUnits="userSpaceOnUse" xlink:href="#id3" x1="12933.1" y1="11441" x2="12933.1" y2="12011.6">
  </linearGradient>
 </defs>
 <g id="Layer_x0020_1">
  <metadata id="CorelCorpID_0Corel-Layer"/>
  <g id="_483766424">
   <path class="fil0" d="M5744 9421c-458,-1258 -894,-2513 -1256,-3806l-38 -134 81 -114c899,-1261 4031,-1590 5459,-1713 1579,-136 3164,-165 4749,-165 1605,0 3205,22 4805,165 1108,99 2283,254 3351,572 772,229 1756,628 2180,1360l60 103 -29 116c-316,1227 -774,2420 -1197,3616l2507 0 1861 5673 -1854 1048 -6448 0 -195 -291 982 0 5586 0 1582 -899 -1731 -5239 -2701 0c439,-1271 989,-2673 1325,-3981 -1137,-1963 -7666,-1951 -10084,-1951 -2390,0 -8742,33 -9971,1756 422,1504 885,2791 1393,4176l-2796 0 -1619 5235 1716 903 3946 0 2466 0 -218 291 -6269 0 -1987 -1051 1748 -5670 2596 0z"/>
   <g style="clip-path:url(#id0)">
    <image x="1005" y="3080" width="27691" height="13470" xlink:href="ArcadeArena_Images\ArcadeArena_ImgID1.png"/>
   </g>
   <path class="fil1" d="M21688 4892c1424,234 2287,541 2287,877 0,736 -4135,1333 -9236,1333 -5102,0 -9237,-597 -9237,-1333 0,-381 1111,-725 2890,-968 -430,159 -669,341 -669,537 0,365 826,678 2162,890 1294,205 3078,332 5046,332 1968,0 3752,-127 5045,-332 1337,-212 2163,-525 2163,-890 0,-160 -159,-310 -451,-446z"/>
   <path class="fil2" d="M14739 4437c2172,0 4169,108 5746,289 919,180 1467,393 1467,612 0,214 -524,423 -1408,600 133,-54 204,-110 204,-169 0,-360 -2691,-652 -6009,-652 -3319,0 -6009,292 -6009,652 0,12 3,23 8,34 -528,-144 -829,-303 -829,-465 0,-257 759,-507 1987,-703 1408,-126 3067,-198 4843,-198z"/>
   <path class="fil3" d="M5660 6229c640,349 1827,619 3310,807 66,380 132,760 198,1139 -1006,-141 -2008,-323 -3007,-546 -21,-9 -40,-19 -60,-29 -121,-350 -232,-682 -322,-971 19,-57 29,-84 -1,-3 -45,-144 -85,-278 -118,-397zm3535 835c3292,390 7924,385 11294,-55 -68,390 -136,780 -204,1171 -3673,482 -7306,508 -10891,26 -66,-381 -133,-761 -199,-1142zm11520 -86c1420,-197 2597,-475 3326,-837 -19,74 -239,703 -516,1499 -1008,203 -2013,373 -3014,510 68,-391 136,-781 204,-1172zm2646 1131c-179,512 -369,1057 -539,1549 -394,155 -886,250 -1457,285 -388,0 -777,0 -1166,0 76,-434 151,-867 226,-1300 976,-142 1954,-320 2936,-534zm-13665 1834c-73,-421 -146,-841 -219,-1261 3529,502 7103,498 10722,-7 -73,423 -147,845 -220,1268 -3428,0 -6856,0 -10283,0zm-1006 0c-763,-72 -1407,-171 -1890,-394 -169,-462 -355,-971 -530,-1466 990,229 1983,418 2980,566 75,431 150,862 225,1294 -261,0 -523,0 -785,0z"/>
   <polygon class="fil4" points="6206,14624 7171,15194 5777,15194 4655,14624 4686,14624 4734,14624 4783,14624 4832,14624 4881,14624 4930,14624 4979,14624 5028,14624 5077,14624 5126,14624 5175,14624 5224,14624 5273,14624 5322,14624 5371,14624 5420,14624 5469,14624 5518,14624 5567,14624 5616,14624 5665,14624 5714,14624 5763,14624 5813,14624 5862,14624 5911,14624 5960,14624 6009,14624 6058,14624 6107,14624 6156,14624 "/>
   <polygon class="fil5" points="4124,14624 5324,15194 3932,15194 2578,14624 2849,14621 "/>
   <polygon class="fil6" points="10325,14624 10827,15194 9433,15194 8756,14624 8805,14624 8854,14624 8903,14624 8952,14624 9001,14624 9050,14624 9099,14624 9147,14624 9196,14624 9245,14624 9294,14624 9343,14624 9392,14624 9441,14624 9490,14624 9539,14624 9588,14624 9637,14624 9686,14624 9736,14624 9785,14624 9834,14624 9883,14624 9932,14624 9981,14624 10030,14624 10079,14624 10128,14624 10177,14624 10226,14624 10276,14624 "/>
   <polygon class="fil7" points="8246,14624 8996,15197 7602,15197 6694,14624 "/>
   <polygon class="fil8" points="14665,14624 14678,15194 11773,15194 11391,14624 "/>
   <polygon class="fil9" points="14641,11493 14549,12012 11607,12012 11225,11441 11329,11441 11432,11441 11536,11441 11639,11441 11743,11441 11846,11441 11950,11441 12053,11441 12157,11441 12260,11441 12364,11441 12467,11441 12571,11441 12674,11441 12778,11441 12881,11441 12985,11441 13088,11441 13192,11441 13295,11441 13399,11441 13502,11441 13605,11441 13709,11441 13812,11441 13916,11441 14019,11441 14123,11441 14226,11441 14330,11441 14433,11441 "/>
   <polygon class="fil10" points="16630,14624 16421,15194 15042,15194 15076,14624 "/>
   <path class="fil11" d="M18714 14624l-443 570 -1394 0 268 -570c523,0 1046,0 1569,0z"/>
   <path class="fil12" d="M27064 14624l-1384 570 -3196 0 980 -570c1060,0 2085,0 3146,0l113 0 114 0 114 0 113 0z"/>
   <path class="fil13" d="M22543 14624l-876 570 -2968 0 498 -570c1100,0 2245,0 3346,0z"/>
   <g>
    <path class="fil14" d="M10066 16330l0 518 -645 0 388 -471c24,-26 51,-53 81,-79 30,-26 60,-39 89,-39 26,0 47,7 63,23 16,16 24,32 24,48zm570 -214c0,-87 -13,-159 -40,-218 -26,-58 -63,-104 -111,-138 -47,-34 -104,-59 -170,-73 -66,-15 -140,-22 -221,-22 -106,0 -212,11 -319,32 -107,21 -190,58 -251,110l-1385 1848 669 0 261 -328 997 0 0 328 570 0 0 -1539z"/>
    <path class="fil14" d="M10889 16417l0 1238 32 0 538 0 0 -751 581 0 565 751 662 0 -546 -751 162 0c37,0 75,-10 113,-28 38,-19 73,-43 103,-73 30,-31 55,-65 73,-103 19,-39 28,-77 28,-117l0 -597c0,-40 -9,-79 -28,-117 -18,-38 -43,-73 -73,-103 -30,-30 -65,-55 -103,-73 -38,-19 -76,-28 -113,-28l-1994 0 0 534 1741 0 0 218 -1741 0z"/>
    <path class="fil14" d="M15773 16199l-1487 0 -267 0 0 922 1872 0 0 534 -2125 0c-37,0 -75,-9 -113,-27 -38,-19 -73,-43 -103,-74 -30,-30 -55,-64 -73,-102 -19,-39 -28,-78 -28,-117l0 -1349c0,-40 9,-79 28,-117 18,-38 43,-73 73,-103 30,-30 65,-55 103,-73 38,-19 76,-28 113,-28l2032 0 0 534 -25 0zm-509 218l0 166c0,40 -9,78 -27,117 -19,38 -43,72 -74,103 -30,30 -64,54 -102,73 -39,18 -76,28 -113,28l-711 0 0 -487 49 0 409 0 569 0z"/>
    <path class="fil14" d="M16599 15669c45,5 102,32 172,81 70,49 160,123 271,222 111,99 247,225 410,380 162,154 358,339 587,555l0 -1242 570 0 0 1741c0,32 -9,62 -26,91 -17,29 -40,55 -69,79 -29,24 -63,43 -103,58 -40,14 -80,21 -123,21l-110 0c-11,0 -18,-1 -20,-4 -42,-5 -100,-33 -172,-83 -73,-50 -167,-125 -281,-225 -115,-101 -253,-228 -416,-382 -162,-154 -354,-338 -575,-552l0 1246 -570 0 0 -1741c0,-29 8,-58 25,-89 18,-30 41,-57 70,-81 29,-24 63,-43 103,-57 39,-15 81,-22 126,-22l107 0c13,0 21,1 24,4z"/>
    <path class="fil14" d="M19422 16330l0 518 645 0 -388 -471c-23,-26 -50,-53 -81,-79 -30,-26 -60,-39 -89,-39 -26,0 -47,7 -63,23 -16,16 -24,32 -24,48zm-570 -214c0,-87 14,-159 40,-218 26,-58 63,-104 111,-138 47,-34 104,-59 170,-73 66,-15 140,-22 222,-22 105,0 211,11 318,32 107,21 191,58 251,110l1385 1848 -668 0 -262 -328 -997 0 0 328 -570 0 0 -1539z"/>
   </g>
   <g style="clip-path:url(#id1)">
    <image x="7876" y="15402" width="13752" height="2518" xlink:href="ArcadeArena_Images\ArcadeArena_ImgID2.png"/>
   </g>
   <g>
    <path class="fil15" d="M7102 10369c-79,355 -157,710 -230,1064 -73,355 -149,709 -225,1064 -75,354 -148,709 -220,1063 -72,355 -146,710 -221,1064 -517,0 -1036,0 -1551,0 44,-190 94,-379 141,-569 44,-189 89,-380 138,-570 -170,0 -344,0 -514,0 -55,190 -97,381 -146,570 -50,190 -99,379 -146,569 -424,-1 -847,-2 -1265,-2 -97,0 -193,1 -285,2 104,-354 210,-709 312,-1064 103,-354 213,-708 319,-1063 107,-354 210,-710 317,-1064 108,-355 216,-709 327,-1064 1081,0 2163,0 3249,0zm15604 3870c15,73 30,146 47,219 -79,0 -161,0 -242,0 15,56 24,111 32,166 -1116,0 -2232,0 -3346,0 -40,-354 -79,-709 -116,-1063 -38,-355 -75,-710 -114,-1064 -40,-355 -82,-709 -122,-1064 -39,-354 -79,-709 -116,-1064 1000,0 2000,0 2997,0 22,129 50,257 72,386 129,0 257,0 388,0 62,290 121,581 179,871 58,291 118,581 178,871 59,290 120,581 178,871 58,290 116,581 176,871 -65,0 -129,0 -191,0zm-11300 163c-101,0 -205,0 -307,0 3,-99 5,-199 10,-299 -84,0 -166,0 -250,0 25,-267 50,-535 77,-803 27,-268 53,-535 79,-803 26,-267 53,-535 77,-803 23,-268 52,-535 77,-804 178,0 351,0 527,0 15,-173 32,-347 47,-521 977,0 1955,0 2932,0 0,188 -2,375 -2,562 0,187 0,375 0,562 -720,0 -1433,0 -2143,0 -23,335 -42,669 -65,1004 -17,334 -34,669 -57,1004 753,0 1508,0 2260,0 0,187 0,374 0,562 0,186 0,374 -3,561 -1091,0 -2180,0 -3274,0 5,-74 13,-148 15,-222zm-6697 -1954c156,0 310,0 468,0 42,-179 88,-359 131,-537 44,-180 89,-358 136,-538 -148,0 -297,0 -453,0 -47,180 -93,360 -138,538 -46,180 -94,358 -144,537zm6029 -1640c-27,259 -58,518 -87,777 -38,347 -76,693 -114,1040 -59,0 -116,0 -173,0 -7,59 -12,118 -20,176 -74,0 -146,0 -217,0 -8,67 -20,134 -23,201 129,0 265,0 391,0 -27,270 -54,541 -84,811 -29,270 -59,541 -89,811 -520,0 -1037,0 -1552,0 33,-256 71,-514 109,-770 39,-258 80,-514 117,-771 -171,0 -339,0 -508,0 -39,257 -84,514 -123,771 -40,256 -82,514 -119,770 -522,0 -1040,0 -1552,0 69,-354 135,-709 203,-1064 68,-354 139,-708 210,-1063 72,-354 143,-709 211,-1064 68,-354 143,-709 217,-1064 931,0 1864,0 2797,0 -12,65 -20,130 -30,196 72,0 144,0 216,0 -13,81 -25,162 -37,243 84,0 170,0 257,0zm-2047 1103c156,0 305,0 461,0 19,-134 39,-268 59,-402 -151,0 -304,0 -455,0 -20,134 -40,268 -65,402zm9605 -1542c32,355 68,710 104,1064 36,355 71,710 104,1064 33,354 67,709 101,1063 35,355 70,710 104,1064 -519,0 -1034,0 -1551,0 -15,-190 -25,-380 -37,-569 -13,-190 -23,-380 -33,-570 -173,0 -341,0 -512,0 10,190 20,380 27,570 8,189 18,379 27,569 -519,0 -1034,0 -1554,0 -2,-354 -6,-709 -10,-1064 -3,-354 -3,-708 -7,-1063 -4,-354 -6,-709 -10,-1064 -4,-354 -7,-709 -7,-1064 1086,0 2165,0 3254,0zm-1752 2079c158,0 312,0 468,0 -10,-179 -21,-358 -33,-537 -11,-180 -22,-358 -29,-538 -151,0 -305,0 -456,0 8,180 20,358 28,538 7,179 17,358 22,537zm4054 1037c205,0 410,0 618,0 -54,-329 -109,-659 -163,-988 -54,-329 -106,-659 -161,-988 -198,0 -393,0 -589,0 50,329 98,659 149,988 50,329 96,659 146,988zm5172 -3116c59,188 115,375 171,562 56,188 114,375 173,562 -626,0 -1250,0 -1873,0 37,145 74,289 113,434 632,0 1263,0 1894,0 57,190 113,380 173,570 59,189 111,380 171,570 -649,0 -1302,0 -1953,0 37,144 77,289 114,434 656,0 1314,0 1972,0 55,187 112,374 169,562 56,186 113,374 170,561 -1202,0 -2403,0 -3600,0 -77,-354 -154,-709 -228,-1063 -74,-355 -154,-709 -228,-1064 -74,-354 -152,-709 -228,-1064 -75,-354 -153,-709 -227,-1064 1069,0 2143,0 3217,0z"/>
    <g>
     <g>
      <path class="fil16" d="M7068 10369c-75,334 -149,666 -218,999 -69,332 -143,666 -213,999 -74,354 -147,709 -220,1064 -73,353 -149,709 -223,1063 -505,0 -1007,0 -1512,0 40,-146 77,-292 109,-439 47,-189 94,-380 143,-570 -14,0 -29,0 -42,0 10,-43 23,-87 35,-130 -173,0 -346,0 -517,0 -52,190 -100,380 -149,570 -48,189 -96,379 -148,569 -500,0 -1003,0 -1500,0 97,-333 193,-667 290,-999 96,-333 201,-665 302,-997 53,-177 105,-356 158,-532 53,-178 106,-356 161,-533 54,-177 110,-354 163,-531 53,-177 109,-355 163,-533 1072,0 2144,0 3218,0zm14685 154c77,0 151,0 228,0 15,77 27,155 40,232 54,0 109,0 163,0 59,290 120,582 178,872 58,290 122,580 181,871 54,268 109,537 161,805 52,269 109,537 163,806 -134,0 -267,0 -398,0 7,43 14,87 22,131 -8,0 -15,0 -22,0 14,84 32,169 47,254 -1107,0 -2215,0 -3324,0 -37,-354 -79,-709 -116,-1063 -38,-355 -75,-710 -114,-1064 -37,-333 -78,-665 -114,-998 -36,-333 -72,-666 -109,-1000 995,0 1990,0 2987,0 8,52 17,103 27,154zm-10248 97c72,0 141,0 213,0 10,-84 17,-167 25,-251 975,0 1950,0 2927,0 -2,145 -1,288 -2,432 -1,187 2,375 0,562 -720,0 -1433,0 -2146,0 -20,335 -44,670 -64,1004 -20,334 -37,669 -57,1004 2,0 7,0 12,0 -2,44 -5,87 -7,130 752,0 1502,0 2257,0 -2,144 -6,287 -5,431 1,187 3,375 0,562 -1086,0 -2175,0 -3259,0 12,-130 19,-260 34,-390 -7,0 -12,0 -17,0 2,-44 5,-87 10,-131 -186,0 -371,0 -559,0 24,-245 49,-492 71,-738 23,-245 48,-491 72,-737 26,-268 53,-536 79,-804 26,-267 55,-535 82,-803 99,0 200,0 302,0 10,-91 22,-181 32,-271zm-6798 1829c156,0 312,0 467,0 45,-179 87,-359 132,-538 44,-179 91,-358 138,-537 -15,0 -29,0 -42,0 10,-44 22,-87 35,-131 -154,0 -302,0 -456,0 -44,179 -92,359 -138,538 -46,179 -94,358 -144,537 13,0 28,0 42,0 -12,44 -24,87 -34,131zm5417 353c-5,43 -17,157 -22,200 126,0 252,0 371,0 -22,227 -46,454 -69,681 -28,270 -60,541 -89,811 -513,0 -1022,0 -1527,0 29,-213 58,-427 89,-640 38,-257 77,-514 119,-771 -10,0 -20,0 -28,0 5,-43 13,-87 23,-130 -174,0 -344,0 -510,0 -40,257 -78,515 -121,771 -44,256 -87,513 -127,770 -507,0 -1014,0 -1522,0 67,-333 134,-666 198,-998 65,-333 132,-666 198,-998 36,-177 71,-356 104,-532 34,-178 71,-356 107,-533 36,-177 73,-354 109,-531 35,-177 71,-355 108,-533 924,0 1844,0 2767,0 -5,22 -5,44 -7,66 5,0 12,0 20,0 -5,43 -10,87 -15,130 59,0 124,0 188,0 -5,38 -10,76 -17,114 7,0 14,0 24,0 -7,43 -12,87 -19,130 79,0 158,0 237,0 -22,216 -46,430 -69,646 -19,173 -42,347 -60,520 -17,174 -39,347 -59,520 -57,0 -114,0 -166,0 -7,59 -15,118 -20,176 -74,0 -146,0 -220,0 -7,67 -10,64 -12,131 5,0 10,0 17,0zm-1433 -891c151,0 305,0 458,0 20,-133 37,-267 59,-401 -9,0 -19,0 -27,0 8,-44 13,-88 23,-131 -151,0 -305,0 -453,0 -23,134 -42,268 -65,402 10,0 20,0 30,0 -10,43 -17,87 -25,130zm9600 -1542c15,178 33,355 50,533 16,177 38,355 54,532 33,354 69,709 104,1064 32,332 62,666 94,998 32,332 67,665 99,998 -515,0 -1027,0 -1542,0 -12,-190 -21,-379 -34,-569 -14,-190 -23,-380 -33,-570 -173,0 -341,0 -509,0 2,43 5,87 5,130 -3,0 -3,0 -3,0 10,190 17,380 27,570 8,146 15,293 20,439 -520,0 -1037,0 -1549,0 -5,-333 -4,-665 -10,-998 -6,-332 -5,-666 -7,-998 -3,-355 -5,-709 -10,-1064 -3,-177 1,-355 -3,-532 -4,-177 -5,-355 -2,-533 1084,0 2163,0 3249,0zm-1747 2080c156,0 309,0 465,0 -2,-44 -5,-88 -7,-131 0,0 2,0 5,0 -13,-179 -23,-358 -33,-537 -9,-180 -22,-359 -32,-538 -151,0 -302,0 -453,0 3,44 5,87 8,131 -3,0 -3,0 -3,0 8,179 20,358 28,537 7,179 17,359 22,538zm4054 1036c203,0 408,0 618,0 -7,-43 -17,-87 -22,-130 5,0 12,0 20,0 -55,-329 -109,-659 -163,-988 -55,-329 -107,-659 -164,-988 -198,0 -391,0 -586,0 7,43 12,87 19,131 -7,0 -12,0 -17,0 50,329 98,658 149,988 50,328 96,658 146,987zm5170 -3116c59,189 113,376 170,563 45,144 89,287 134,431 -611,0 -1225,0 -1834,0 10,43 22,87 37,130 -12,0 -25,0 -34,0 37,145 74,290 113,434 629,0 1263,0 1891,0 57,191 113,381 173,571 47,146 87,292 132,439 -639,0 -1275,0 -1913,0 9,44 19,87 32,130 -13,0 -23,0 -32,0 37,145 76,290 113,434 659,0 1317,0 1975,0 55,188 113,375 169,562 43,144 86,287 131,431 -1191,0 -2379,0 -3564,0 -79,-354 -156,-709 -230,-1063 -74,-354 -145,-710 -223,-1064 -73,-333 -145,-666 -215,-998 -71,-333 -146,-666 -215,-1000 1061,0 2123,0 3190,0z"/>
      <path class="fil17" d="M6595 12564c-64,321 -134,643 -200,965 -67,321 -134,643 -201,965 -505,0 -1007,0 -1512,0 40,-146 77,-292 109,-439 47,-189 94,-380 143,-570 -14,0 -29,0 -42,0 10,-43 23,-87 35,-130 -173,0 -346,0 -517,0 -52,190 -100,380 -149,570 -48,189 -96,379 -148,569 -500,0 -1003,0 -1500,0 74,-253 148,-507 218,-758 71,-254 153,-506 228,-758 1066,-160 2254,-300 3536,-414zm15995 1545c20,89 39,177 59,265 -52,0 -104,0 -156,0 8,40 15,80 23,120 -1107,0 -2215,0 -3324,0 -37,-354 -79,-709 -116,-1063 -38,-355 -75,-710 -114,-1064 -8,-38 -13,-77 -15,-115 497,15 990,34 1472,56 13,63 23,126 33,190 51,328 96,658 146,987 203,0 408,0 618,0 -7,-43 -17,-87 -22,-130 5,0 12,0 20,0 -55,-329 -109,-659 -163,-988 -3,-9 -5,-19 -5,-29 502,26 997,56 1482,88 5,24 10,48 15,72 54,268 109,537 161,805 52,269 109,537 163,806 -91,0 -186,0 -277,0zm-11174 164c-62,0 -124,0 -186,0 3,-100 8,-200 10,-300 -126,0 -250,0 -373,0 24,-245 49,-492 71,-738 23,-245 47,-491 72,-737 8,-72 13,-143 20,-215 475,-19 950,-34 1438,-47 -5,44 -8,88 -10,131 -20,334 -37,669 -57,1004 2,0 7,0 12,0 -2,44 -5,87 -7,130 752,0 1502,0 2257,0 -2,144 -6,287 -5,431 1,187 3,375 0,562 -1086,0 -2175,0 -3259,0 5,-74 12,-147 17,-221zm4017 -2076c250,0 735,2 1103,6 3,82 5,164 8,246 156,0 309,0 465,0 -2,-44 -5,-88 -7,-131 0,0 2,0 5,0 -3,-37 -5,-73 -8,-109 498,6 990,16 1475,29 5,87 15,174 25,260 32,332 62,666 94,998 32,332 67,665 99,998 -515,0 -1027,0 -1542,0 -12,-190 -21,-379 -34,-569 -14,-190 -23,-380 -33,-570 -173,0 -341,0 -509,0 2,43 5,87 5,130 -3,0 -3,0 -3,0 10,190 17,380 27,570 8,146 15,293 20,439 -520,0 -1037,0 -1549,0 -5,-333 -4,-665 -10,-998 -6,-332 -5,-666 -7,-998 0,-100 0,-200 -3,-300 124,0 129,-1 379,-1zm7592 264c1245,91 2411,205 3483,336 14,46 29,93 42,140 -639,0 -1275,0 -1913,0 9,44 19,87 32,130 -13,0 -23,0 -32,0 37,145 76,290 113,434 659,0 1317,0 1975,0 55,188 113,375 169,562 43,144 86,287 131,431 -1191,0 -2379,0 -3564,0 -74,-339 -152,-678 -223,-1016 -70,-339 -141,-677 -213,-1017zm-15923 59c1089,-90 2243,-163 3448,-216 -10,63 -15,128 -25,191 -57,0 -114,0 -166,0 -7,59 -15,118 -20,176 -74,0 -146,0 -220,0 -7,67 -10,64 -12,131 5,0 10,0 17,0 -5,43 -17,157 -22,200 126,0 252,0 371,0 -22,227 -46,454 -69,681 -28,270 -60,541 -89,811 -513,0 -1022,0 -1527,0 29,-213 58,-427 89,-640 38,-257 77,-514 119,-771 -10,0 -20,0 -28,0 5,-43 13,-87 23,-130 -174,0 -344,0 -510,0 -40,257 -78,515 -121,771 -44,256 -87,513 -127,770 -507,0 -1014,0 -1522,0 65,-329 134,-658 198,-987 65,-328 127,-658 193,-987z"/>
     </g>
     <path class="fil18" d="M26866 14589c65,12 132,24 198,35 -66,-11 -133,-23 -198,-35z"/>
    </g>
   </g>
  </g>
 </g>
</svg>
